<svg width="17" height="17" viewBox="0 0 17 17" fill="none" xmlns="http://www.w3.org/2000/svg">
<path fill-rule="evenodd" clip-rule="evenodd" d="M7.53307 4.01338e-05C7.57148 6.09058e-05 7.61045 8.19818e-05 7.65001 8.19818e-05L12.1051 8.15765e-05C12.7893 7.07345e-05 13.354 6.18185e-05 13.814 0.0376462C14.2918 0.0766822 14.731 0.160461 15.1435 0.370656C15.7832 0.696623 16.3034 1.21675 16.6293 1.8565C16.8395 2.26903 16.9233 2.70822 16.9624 3.186C16.9999 3.64601 16.9999 4.2107 16.9999 4.89491V9.34999C16.9999 9.38955 16.9999 9.42852 17 9.46693C17.0003 10.143 17.0006 10.6451 16.8841 11.08C16.5697 12.2533 15.6532 13.1697 14.4799 13.4841C14.2168 13.5546 13.9291 13.5823 13.5932 13.5932C13.5823 13.9291 13.5546 14.2168 13.4841 14.4799C13.1697 15.6532 12.2533 16.5697 11.08 16.8841C10.6451 17.0006 10.143 17.0003 9.46693 17C9.42852 16.9999 9.38955 16.9999 9.34999 16.9999H4.89491C4.2107 16.9999 3.64601 16.9999 3.186 16.9624C2.70822 16.9233 2.26903 16.8395 1.8565 16.6293C1.21675 16.3034 0.696623 15.7832 0.370656 15.1435C0.160461 14.731 0.0766822 14.2918 0.0376462 13.814C6.18185e-05 13.354 7.07345e-05 12.7893 8.15765e-05 12.1051L8.19818e-05 7.65001C8.19818e-05 7.61045 6.09058e-05 7.57148 4.01338e-05 7.53307C-0.00032596 6.857 -0.000597818 6.35494 0.115933 5.92004C0.430318 4.74674 1.34677 3.83028 2.52007 3.5159C2.78318 3.4454 3.07088 3.41765 3.40681 3.40681C3.41765 3.07088 3.4454 2.78318 3.5159 2.52007C3.83028 1.34677 4.74674 0.430318 5.92004 0.115933C6.35494 -0.000597818 6.857 -0.00032596 7.53307 4.01338e-05ZM5.10842 3.40005L8.7051 3.40005C9.38932 3.40004 9.95402 3.40003 10.414 3.43761C10.8918 3.47665 11.331 3.56043 11.7435 3.77062C12.3833 4.09659 12.9034 4.61672 13.2294 5.25646C13.4396 5.66899 13.5233 6.10819 13.5624 6.58597C13.6 7.04598 13.6 7.61069 13.5999 8.29492V11.8916C13.8189 11.8838 13.939 11.8691 14.0399 11.842C14.6266 11.6848 15.0848 11.2266 15.242 10.64C15.2926 10.451 15.2999 10.1952 15.2999 9.34999V4.93003C15.2999 4.20195 15.2993 3.707 15.268 3.32443C15.2376 2.95178 15.1824 2.76121 15.1146 2.62827C14.9517 2.3084 14.6916 2.04834 14.3717 1.88535C14.2388 1.81762 14.0482 1.76243 13.6756 1.73198C13.293 1.70073 12.7981 1.70007 12.07 1.70007H7.65001C6.80482 1.70007 6.54896 1.70737 6.36003 1.75799C5.77338 1.91518 5.31515 2.37341 5.15796 2.96006C5.1309 3.06103 5.11622 3.18111 5.10842 3.40005ZM4.25004 5.10003C3.40485 5.10003 3.149 5.10733 2.96006 5.15796C2.37341 5.31515 1.91518 5.77338 1.75799 6.36003C1.70737 6.54896 1.70007 6.80482 1.70007 7.65001V12.07C1.70007 12.7981 1.70073 13.293 1.73198 13.6756C1.76243 14.0482 1.81762 14.2388 1.88535 14.3717C2.04834 14.6916 2.3084 14.9517 2.62827 15.1146C2.76121 15.1824 2.95178 15.2376 3.32443 15.268C3.707 15.2993 4.20195 15.2999 4.93003 15.2999H9.34999C10.1952 15.2999 10.451 15.2926 10.64 15.242C11.2266 15.0848 11.6848 14.6266 11.842 14.0399C11.8927 13.851 11.9 13.5951 11.9 12.75V8.33C11.9 7.60192 11.8993 7.10697 11.868 6.7244C11.8376 6.35175 11.7824 6.16118 11.7147 6.02824C11.5517 5.70837 11.2916 5.4483 10.9718 5.28532C10.8388 5.21758 10.6482 5.1624 10.2756 5.13195C9.89303 5.10069 9.39808 5.10003 8.67 5.10003H4.25004Z" fill="white"/>
</svg>
