<svg width="34" height="34" viewBox="0 0 34 34" fill="none" xmlns="http://www.w3.org/2000/svg">
<path d="M1.41797 1.41699H32.5846V31.7337H1.41797V1.41699Z" fill="url(#paint0_radial_678_66444)"/>
<path d="M1.41665 5.41664C1.41665 3.2075 3.20751 1.41665 5.41665 1.41665H28.5833C30.7925 1.41665 32.5834 3.20751 32.5834 5.41665V27.7333C32.5834 29.9425 30.7925 31.7333 28.5834 31.7333H5.41665C3.20751 31.7333 1.41665 29.9425 1.41665 27.7333V5.41664ZM0 29.15C0 31.3592 1.79086 33.15 4 33.15H30C32.2091 33.15 34 31.3592 34 29.15V4C34 1.79086 32.2091 0 30 0H4C1.79086 0 0 1.79086 0 4V29.15Z" fill="#D8A1FF"/>
<path d="M27.4396 26.5405L26.5325 26.7549C26.3291 26.8044 26.1696 26.9583 26.1256 27.1617L25.9332 27.9699C25.8288 28.4097 25.268 28.5472 24.9766 28.2008L23.3327 26.3096C23.2008 26.1556 23.2722 25.9137 23.4702 25.8642C24.4433 25.6278 25.3175 25.0835 25.9607 24.3083C26.0652 24.1819 26.2521 24.1654 26.3675 24.2808L27.5881 25.5014C28.0059 25.9192 27.8575 26.4415 27.4396 26.5405Z" fill="#D8A1FF"/>
<path d="M17.241 26.5405L18.1482 26.7549C18.3516 26.8044 18.511 26.9583 18.555 27.1617L18.7475 27.9699C18.8519 28.4097 19.4127 28.5472 19.7041 28.2008L21.348 26.3096C21.4799 26.1556 21.4084 25.9137 21.2105 25.8642C20.2374 25.6278 19.3632 25.0835 18.72 24.3083C18.6155 24.1819 18.4286 24.1654 18.3131 24.2808L17.0926 25.5014C16.6748 25.9192 16.8232 26.4415 17.241 26.5405Z" fill="#D8A1FF"/>
<path d="M22.3563 17.4854C20.2286 17.4854 18.5078 19.2062 18.5078 21.3339C18.5078 22.1311 18.7442 22.8623 19.1511 23.4725C19.7448 24.3522 20.685 24.9735 21.7791 25.1329C21.966 25.1659 22.1584 25.1824 22.3563 25.1824C22.5543 25.1824 22.7467 25.1659 22.9336 25.1329C24.0277 24.9735 24.9678 24.3522 25.5616 23.4725C25.9684 22.8623 26.2048 22.1311 26.2048 21.3339C26.2048 19.2062 24.484 17.4854 22.3563 17.4854ZM24.0387 21.2129L23.5824 21.6692C23.5054 21.7462 23.4614 21.8947 23.4889 22.0046L23.6208 22.5709C23.7253 23.0162 23.4889 23.1921 23.093 22.9557L22.5433 22.6314C22.4443 22.5709 22.2794 22.5709 22.1804 22.6314L21.6306 22.9557C21.2348 23.1867 20.9984 23.0162 21.1028 22.5709L21.2348 22.0046C21.2568 21.9001 21.2183 21.7462 21.1413 21.6692L20.674 21.2129C20.4046 20.9435 20.4925 20.6741 20.8664 20.6136L21.4547 20.5147C21.5536 20.4982 21.6691 20.4102 21.7131 20.3223L22.0375 19.6735C22.2134 19.3216 22.4993 19.3216 22.6752 19.6735L22.9996 20.3223C23.0436 20.4102 23.159 20.4982 23.2635 20.5147L23.8518 20.6136C24.2201 20.6741 24.3081 20.9435 24.0387 21.2129Z" fill="#D8A1FF"/>
<path d="M24.4189 15.3509V11.7773C24.4189 7.31025 22.6321 5.52344 18.165 5.52344H12.8046C8.33759 5.52344 6.55078 7.31025 6.55078 11.7773V17.1377C6.55078 21.6047 8.33759 23.3915 12.8046 23.3915H16.3782" stroke="#D8A1FF" stroke-width="0.754786" stroke-linecap="round" stroke-linejoin="round"/>
<path fill-rule="evenodd" clip-rule="evenodd" d="M15.9239 10.7712C15.9239 10.5373 16.1135 10.3477 16.3475 10.3477H19.7361C19.97 10.3477 20.1596 10.5373 20.1596 10.7712V14.1598C20.1596 14.3937 19.97 14.5834 19.7361 14.5834C19.5021 14.5834 19.3125 14.3937 19.3125 14.1598V11.9578L16.2517 15.6987C16.176 15.7914 16.0645 15.8476 15.945 15.8536C15.8255 15.8595 15.709 15.8146 15.6244 15.73L13.4335 13.5391L10.3365 17.7975C10.1989 17.9867 9.93397 18.0285 9.74478 17.8909C9.55559 17.7533 9.51376 17.4884 9.65136 17.2992L13.0399 12.64C13.1128 12.5398 13.2259 12.4765 13.3494 12.4668C13.4728 12.4571 13.5944 12.502 13.682 12.5896L15.8925 14.8L18.8422 11.1948H16.3475C16.1135 11.1948 15.9239 11.0052 15.9239 10.7712Z" fill="#D8A1FF" stroke="#D8A1FF" stroke-width="0.169231"/>
<defs>
<radialGradient id="paint0_radial_678_66444" cx="0" cy="0" r="1" gradientUnits="userSpaceOnUse" gradientTransform="translate(11.6827 8.211) scale(23.6866 22.933)">
<stop stop-color="#442F55" stop-opacity="0.98"/>
<stop offset="1" stop-color="#12002C"/>
</radialGradient>
</defs>
</svg>
