<svg width="16" height="16" viewBox="0 0 16 16" fill="none" xmlns="http://www.w3.org/2000/svg">
<path id="Vector" d="M14.857 1.95074L8.4045 8.40281C8.25935 8.54298 8.05107 8.59616 7.85642 8.54285C7.66178 8.48954 7.50975 8.33751 7.45643 8.14288C7.40311 7.94825 7.4563 7.73997 7.59648 7.59484L14.049 1.14277H9.71434C9.51013 1.14277 9.32149 1.03385 9.21945 0.857076C9.11741 0.680303 9.11741 0.462462 9.21945 0.285692C9.32149 0.108922 9.51014 0 9.71434 0H15.4286C15.5801 0 15.7255 0.060201 15.8327 0.167334C15.9398 0.274467 16 0.419866 16 0.571384V6.28523C16 6.48942 15.8911 6.67805 15.7143 6.78008C15.5375 6.88211 15.3196 6.88211 15.1429 6.78008C14.9661 6.67805 14.8572 6.48941 14.8572 6.28523L14.857 1.95074ZM4.57139 2.28553H1.71313C0.766851 2.28553 0 3.05001 0 3.99508V14.2904C0 15.2332 0.776026 16 1.71656 16H11.9963C12.4518 16.0006 12.8888 15.8199 13.2108 15.4979C13.5328 15.176 13.7135 14.739 13.7129 14.2836V11.4289C13.7129 11.2247 13.6039 11.0361 13.4272 10.9341C13.2504 10.832 13.0325 10.832 12.8557 10.9341C12.6789 11.0361 12.57 11.2247 12.57 11.4289V14.2836C12.5707 14.4358 12.5103 14.5821 12.4027 14.6899C12.2949 14.7975 12.1487 14.8579 11.9963 14.8572H1.71656C1.56579 14.8566 1.42115 14.7969 1.31388 14.6909C1.20661 14.5851 1.14526 14.4412 1.14284 14.2904V3.99506C1.14284 3.68194 1.39768 3.42828 1.71312 3.42828H4.57138C4.77559 3.42828 4.96423 3.31936 5.06627 3.14258C5.16831 2.96581 5.16831 2.74797 5.06627 2.5712C4.96423 2.39443 4.77559 2.28553 4.57139 2.28553Z" fill="white"/>
</svg>
